<?xml version="1.0" encoding="UTF-8" standalone="no"?>
<svg
   width="20834"
   height="20834"
   viewBox="0 0 20834 20834"
   version="1.1"
   xml:space="preserve"
   style="clip-rule:evenodd;fill-rule:evenodd;stroke-linecap:round;stroke-linejoin:round;stroke-miterlimit:1.5"
   id="svg10"
   sodipodi:docname="favicon2.svg"
   inkscape:version="1.3 (0e150ed6c4, 2023-07-21)"
   inkscape:export-filename="favicon3.1.png"
   inkscape:export-xdpi="1"
   inkscape:export-ydpi="1"
   xmlns:inkscape="http://www.inkscape.org/namespaces/inkscape"
   xmlns:sodipodi="http://sodipodi.sourceforge.net/DTD/sodipodi-0.dtd"
   xmlns="http://www.w3.org/2000/svg"
   xmlns:svg="http://www.w3.org/2000/svg"><defs
     id="defs10"><inkscape:path-effect
       effect="bspline"
       id="path-effect13"
       is_visible="true"
       lpeversion="1.3"
       weight="33.333333"
       steps="2"
       helper_size="0"
       apply_no_weight="true"
       apply_with_weight="true"
       only_selected="false"
       uniform="false" /><inkscape:path-effect
       effect="spiro"
       id="path-effect12"
       is_visible="true"
       lpeversion="1" /></defs><sodipodi:namedview
     id="namedview10"
     pagecolor="#ffffff"
     bordercolor="#000000"
     borderopacity="0.25"
     inkscape:showpageshadow="2"
     inkscape:pageopacity="0.0"
     inkscape:pagecheckerboard="0"
     inkscape:deskcolor="#d1d1d1"
     inkscape:zoom="0.041882008"
     inkscape:cx="12606.845"
     inkscape:cy="10708.656"
     inkscape:window-width="1920"
     inkscape:window-height="1017"
     inkscape:window-x="1912"
     inkscape:window-y="317"
     inkscape:window-maximized="1"
     inkscape:current-layer="g10"
     inkscape:export-bgcolor="#ffffff00" /><g
     id="g10"
     transform="matrix(1.0425075,0,0,1.331147,-468.11018,4680.6985)"><path
       d="m 12470.251,8876.5553 c 851.601,425.8624 2163.847,1506.8817 2163.847,2097.8837 0,189.977 -53.946,366.863 -159.932,563.576 -105.987,196.712 -289.282,217.055 -741.497,217.055 H 8542.313 3351.957 c -452.2158,0 -635.5112,-20.343 -741.497,-217.055 -105.9859,-196.713 -159.9324,-373.599 -159.9324,-563.576 0,-591.045 1014.5821,-1403.0451 1866.2963,-1828.9182"
       style="fill:#503529;stroke:#ffffff;stroke-width:714.513px;stroke-opacity:1"
       id="path1"
       sodipodi:nodetypes="cssscsssc" /><path
       d="M 8259.2425,9991.5184 C 4189.1,9966.1558 897.50507,6706.5985 897.50507,2689.3927 v -3942.0472 c 9.51761,-1308.8907 410.17733,-1739.565 1266.23183,-1790.1164 H 14450.628 c 856.053,50.5459 1256.714,481.2202 1266.231,1790.1164 v 3942.0472 c 0,4032.9351 -3317.421,7302.2773 -7409.6572,7302.2773 l -47.9202,-0.1503 z"
       style="fill:#89614f;stroke-width:1.16064"
       id="path2" /><clipPath
       id="_clip1"><path
         d="M 8440.72,9991.56 C 4275.47,9973.162 906.96,7608.68 906.96,4694.6 V 1835.04 C 916.7,885.571 1326.722,573.16 2202.78,536.49 h 12574 c 876.057,36.666 1286.08,349.077 1295.82,1298.55 V 4694.6 c 0,2925.49 -3394.94,5297.07 -7582.8,5297.07 l -49.04,-0.109 z"
         id="path3" /></clipPath><g
       clip-path="url(#_clip1)"
       id="g4"
       transform="matrix(0.97716643,0,0,1.3885392,11.254205,-3821.4792)"><path
         d="m 13876.8,8420.14 c -2891.03,0 -4698.71,295.254 -6961.74,-485.859 C 3626.12,6799.061 2313.68,3844.271 3392.8,536.501 H -874 v 8844.64 c 6282.55,866.589 14552.4,465.005 14750.8,-960.995 z"
         style="fill:#6c483e"
         id="path4" /></g><path
       d="M 8259.6724,9923.5087 C 4226.0354,9898.3451 963.96303,6664.359 963.96303,2678.6682 v -3911.1219 c 9.43224,-1298.6225 406.49837,-1725.9181 1254.87487,-1776.073 H 14395.526 c 848.376,50.1494 1245.443,477.4451 1254.875,1776.073 v 3911.1219 c 0,4001.2966 -3287.666,7244.9909 -7343.1994,7244.9909 l -47.4904,-0.1491 z"
       style="fill:none;stroke:#ffffff;stroke-width:953.111px;stroke-opacity:1"
       id="path5" /><path
       d="m 15819.338,1290.9239 h 1240.077 c 512.719,0 1117.335,204.1155 1228.873,968.3935 120.109,823.0011 -280.671,1806.427 -666.569,2495.4388 -512.619,915.2708 -1420.896,905.9116 -1911.773,905.9116 h -608.187 c 5.334,0 -242.132,274.0122 -824.878,1204.9173 -564.895,788.0997 -816.271,1005.8396 -816.271,1005.8396 l 2010.046,-135.0665 c 1043.167,-70.0964 2367.973,-604.8257 3049.896,-1226.7076 675.524,-616.0458 896.867,-1197.0088 1217.963,-1997.3586 294.18,-733.2599 312.168,-2035.3347 310.98,-2675.3534 -2.669,-1437.74404 -1317.167,-2576.15569 -2236.539,-2576.15569 H 15819.327 V 1290.9043 Z"
       style="fill:#503529;stroke:#ffffff;stroke-width:679.740677;stroke-opacity:1;stroke-dasharray:none"
       id="path6"
       sodipodi:nodetypes="csssscccsssssccc" /><path
       d="M 5375.6048,-2180.4655 H 14282.809 V 165.83454 c 0,503.089 -399.119,911.53296 -890.72,911.53296 -491.603,0 -890.721,-408.44396 -890.721,-911.53296 v -322.847 c 0,-503.09 -399.119,-911.53404 -890.72,-911.53404 -491.602,0 -890.721,408.44404 -890.721,911.53404 V 1635.5875 c 0,503.09 -399.118,911.534 -890.7201,911.534 -491.6017,0 -890.7204,-408.444 -890.7204,-911.534 V 500.99754 c 0,-503.0900032 -399.1178,-911.534 -890.7204,-911.534 -491.6017,0 -890.7205,408.4439968 -890.7205,911.534 v 177.724 c 0,503.08896 -399.1177,911.53396 -890.7204,911.53396 -491.6017,0 -890.7194,-408.445 -890.7194,-911.53396 V -2180.4685 Z"
       style="fill:#6c483e;stroke-width:0.988517"
       id="path7" /><clipPath
       id="_clip2"><path
         d="m 5489.7,536.499 h 9115.34 v 2346.3 c 0,503.089 -408.445,911.533 -911.534,911.533 -503.09,0 -911.534,-408.444 -911.534,-911.533 v -322.847 c 0,-503.09 -408.445,-911.534 -911.534,-911.534 -503.089,0 -911.534,408.444 -911.534,911.534 v 1792.6 c 0,503.09 -408.445,911.534 -911.534,911.534 -503.089,0 -911.534,-408.444 -911.534,-911.534 v -1134.59 c 0,-503.09 -408.444,-911.534 -911.534,-911.534 -503.089,0 -911.534,408.444 -911.534,911.534 v 177.724 c 0,503.089 -408.444,911.534 -911.534,911.534 -503.089,0 -911.533,-408.445 -911.533,-911.534 V 536.496 Z"
         id="path8" /></clipPath><g
       clip-path="url(#_clip2)"
       id="g9"
       transform="matrix(0.97716643,0,0,1,11.254205,-2844.13)"><path
         d="m 5489.7,1540.36 c 332.088,1039.41 910.961,1439.3 1835.72,1525.53 559.36,52.157 1005.48,-402.522 1660,-349.417 766.204,62.167 625.199,1446.15 1973.48,1438.96 574.43,-3.061 1033.22,-2108.51 1664.91,-2108.51 631.695,0 967.576,835.868 1981.23,835.868 -159.085,965.212 -898.818,1911.69 -1622.29,2858.7 0,0 -4450.58,577.657 -4883.83,275.7 C 7665.677,5715.234 4212.86,4927.521 4212.86,4927.521 L 5489.7,1540.351 Z"
         style="fill:#503529"
         id="path9" /></g><path
       d="M 5382.5902,-2257.9829 H 14275.823 V 215.28821 c 0,530.3139 -398.492,960.86099 -889.323,960.86099 -490.831,0 -889.323,-430.54709 -889.323,-960.86099 V -125.0298 c 0,-530.31499 -398.493,-960.8621 -889.323,-960.8621 -490.831,0 -889.324,430.54711 -889.324,960.8621 v 1889.6074 c 0,530.3149 -398.492,960.862 -889.3231,960.862 -490.8306,0 -889.3234,-430.5471 -889.3234,-960.862 V 568.58871 c 0,-530.314941 -398.4916,-960.8621 -889.3232,-960.8621 -490.8307,0 -889.3234,430.547159 -889.3234,960.8621 v 187.34162 c 0,530.31387 -398.4918,960.86207 -889.3234,960.86207 -490.8306,0 -889.3224,-430.5482 -889.3224,-960.86207 V -2257.9861 Z"
       style="fill:none;stroke:#2a1c18;stroke-width:559.903px"
       id="path10" /></g><path
     style="fill:none;fill-opacity:1;stroke:#2a1c18;stroke-width:1;stroke-dasharray:none;stroke-opacity:1;paint-order:normal"
     d="m 8858.2189,16116.706 c -248.3607,6.747 -497.1987,-107.845 -653.5244,-300.953 -156.3257,-193.108 -216.5929,-460.353 -158.28,-701.865 52.7565,-218.5 192.6464,-404.296 332.9671,-579.897 140.3206,-175.6 287.4746,-353.238 359.4543,-566.18 53.6975,-158.857 62.3233,-332.677 24.6173,-496.069 -37.7059,-163.393 -121.628,-315.856 -239.5067,-435.118"
     id="path12"
     inkscape:path-effect="#path-effect12"
     inkscape:original-d="m 8858.2189,16116.706 c -262.6426,-326.314 -541.203,-668.545 -811.8044,-1002.818 -270.6015,-334.272 461.6142,-764.051 692.4214,-1146.077 230.8071,-382.025 -143.2596,-620.791 -214.8894,-931.187"
     transform="matrix(0.97716643,0,0,1,1.0439689,0)" /><path
     style="fill:none;fill-opacity:1;stroke:#4eb643;stroke-opacity:1;paint-order:normal"
     d="m 12177.066,15161.641 c 660.586,-517.326 1321.172,-1034.652 1353.001,-1392.804 31.83,-358.151 -565.073,-557.118 -1161.988,-756.09"
     id="path13"
     inkscape:path-effect="#path-effect13"
     inkscape:original-d="m 12177.066,15161.641 c 660.586,-517.326 1321.172,-1034.652 1981.758,-1551.979 -596.927,-198.975 -1193.83,-397.943 -1790.745,-596.915"
     transform="matrix(0.97716643,0,0,1,1.0439689,0)" /></svg>
