<?xml version="1.0" encoding="UTF-8" standalone="no"?>
<!-- Created with Inkscape (http://www.inkscape.org/) -->

<svg
   width="7717.0078mm"
   height="7309.2397mm"
   viewBox="0 0 7717.0078 7309.2398"
   version="1.1"
   id="svg1"
   inkscape:version="1.3 (0e150ed6c4, 2023-07-21)"
   sodipodi:docname="schoco-full.svg"
   xmlns:inkscape="http://www.inkscape.org/namespaces/inkscape"
   xmlns:sodipodi="http://sodipodi.sourceforge.net/DTD/sodipodi-0.dtd"
   xmlns="http://www.w3.org/2000/svg"
   xmlns:svg="http://www.w3.org/2000/svg">
  <sodipodi:namedview
     id="namedview1"
     pagecolor="#ffffff"
     bordercolor="#000000"
     borderopacity="0.25"
     inkscape:showpageshadow="2"
     inkscape:pageopacity="0.0"
     inkscape:pagecheckerboard="0"
     inkscape:deskcolor="#d1d1d1"
     inkscape:document-units="mm"
     inkscape:zoom="0.022855947"
     inkscape:cx="15094.54"
     inkscape:cy="14853.902"
     inkscape:window-width="1920"
     inkscape:window-height="1017"
     inkscape:window-x="1912"
     inkscape:window-y="317"
     inkscape:window-maximized="1"
     inkscape:current-layer="layer1" />
  <defs
     id="defs1">
    <clipPath
       id="_clip1">
      <path
         d="M 8440.72,9991.56 C 4275.47,9973.162 906.96,7608.68 906.96,4694.6 V 1835.04 C 916.7,885.571 1326.722,573.16 2202.78,536.49 h 12574 c 876.057,36.666 1286.08,349.077 1295.82,1298.55 V 4694.6 c 0,2925.49 -3394.94,5297.07 -7582.8,5297.07 l -49.04,-0.109 z"
         id="path3" />
    </clipPath>
    <clipPath
       id="_clip2">
      <path
         d="m 5489.7,536.499 h 9115.34 v 2346.3 c 0,503.089 -408.445,911.533 -911.534,911.533 -503.09,0 -911.534,-408.444 -911.534,-911.533 v -322.847 c 0,-503.09 -408.445,-911.534 -911.534,-911.534 -503.089,0 -911.534,408.444 -911.534,911.534 v 1792.6 c 0,503.09 -408.445,911.534 -911.534,911.534 -503.089,0 -911.534,-408.444 -911.534,-911.534 v -1134.59 c 0,-503.09 -408.444,-911.534 -911.534,-911.534 -503.089,0 -911.534,408.444 -911.534,911.534 v 177.724 c 0,503.089 -408.444,911.534 -911.534,911.534 -503.089,0 -911.533,-408.445 -911.533,-911.534 V 536.496 Z"
         id="path8" />
    </clipPath>
  </defs>
  <g
     inkscape:label="Ebene 1"
     inkscape:groupmode="layer"
     id="layer1"
     transform="translate(3749.8077,2558.7856)">
    <g
       id="g10"
       transform="matrix(0.26458333,0,0,0.26458333,-2582.8307,-312.6286)"
       style="clip-rule:evenodd;fill-rule:evenodd;stroke-linecap:round;stroke-linejoin:round;stroke-miterlimit:1.5">
      <path
         d="m 12467.2,9381.23 c 672.847,438.029 1076.3,996.453 1076.3,1604.34 0,195.404 -42.622,377.344 -126.361,579.677 -83.74,202.332 -228.561,223.256 -585.854,223.256 h -4100.88 c 0,0 -4100.88,0 -4100.88,0 -357.294,0 -502.115,-20.924 -585.854,-223.256 -83.739,-202.333 -126.362,-384.273 -126.362,-579.677 0,-607.931 403.514,-1166.39 1076.45,-1604.43"
         style="fill:#503529;stroke:#2a1c18;stroke-width:644.12px"
         id="path1" />
      <path
         d="M 8440.72,9991.5184 C 4275.47,9966.1558 906.96,6706.5985 906.96,2689.3927 v -3942.0472 c 9.74,-1308.8907 419.762,-1739.565 1295.82,-1790.1164 h 12574 c 876.057,50.5459 1286.08,481.2202 1295.82,1790.1164 v 3942.0472 c 0,4032.9351 -3394.94,7302.2773 -7582.8,7302.2773 l -49.04,-0.1503 z"
         style="fill:#89614f;stroke-width:1.17412"
         id="path2" />
      <clipPath
         id="clipPath4">
        <path
           d="M 8440.72,9991.56 C 4275.47,9973.162 906.96,7608.68 906.96,4694.6 V 1835.04 C 916.7,885.571 1326.722,573.16 2202.78,536.49 h 12574 c 876.057,36.666 1286.08,349.077 1295.82,1298.55 V 4694.6 c 0,2925.49 -3394.94,5297.07 -7582.8,5297.07 l -49.04,-0.109 z"
           id="path4" />
      </clipPath>
      <g
         clip-path="url(#_clip1)"
         id="g4"
         transform="matrix(1,0,0,1.3885392,0,-3821.4792)">
        <path
           d="m 13876.8,8420.14 c -2891.03,0 -4698.71,295.254 -6961.74,-485.859 C 3626.12,6799.061 2313.68,3844.271 3392.8,536.501 H -874 v 8844.64 c 6282.55,866.589 14552.4,465.005 14750.8,-960.995 z"
           style="fill:#6c483e"
           id="path5" />
      </g>
      <path
         d="M 8441.16,9923.5087 C 4313.2685,9898.3451 974.97089,6664.359 974.97089,2678.6682 v -3911.1219 c 9.65264,-1298.6225 415.99711,-1725.9181 1284.19771,-1776.073 H 14720.391 c 868.2,50.1494 1274.545,477.4451 1284.198,1776.073 v 3911.1219 c 0,4001.2966 -3364.49,7244.9909 -7514.7892,7244.9909 l -48.6001,-0.1491 z"
         style="fill:none;stroke:#2a1c18;stroke-width:964.182px"
         id="path6" />
      <path
         d="m 16177.473,1290.9239 h 1269.054 c 524.7,0 879.018,94.138 648.195,842.8355 -328.181,1064.4878 -1201.055,3526.9084 -2029.197,3526.9084 h -622.399 c 5.459,0 -247.789,274.0122 -844.153,1204.9173 -578.095,788.0997 -835.344,1005.8396 -835.344,1005.8396 l 2057.014,-135.0665 c 1067.543,-70.0964 2116.429,-927.9058 2605.523,-1657.1923 561.168,-836.7495 1389.737,-2580.7675 1564.67,-4134.6061 C 20152.1,512.12074 19158.531,-739.21709 18217.676,-739.21709 H 16177.462 V 1290.9043 Z"
         style="fill:#503529;stroke:#2a1c18;stroke-width:687.637px"
         id="path7"
         sodipodi:nodetypes="cssscccssssccc" />
      <path
         d="m 5489.7,-2941.4621 h 9115.34 v 2346.3 c 0,503.089 -408.445,911.533 -911.534,911.533 -503.09,0 -911.534,-408.444 -911.534,-911.533 v -322.847 c 0,-503.09 -408.445,-911.534 -911.534,-911.534 -503.089,0 -911.534,408.444 -911.534,911.534 v 1792.6 c 0,503.09 -408.445,911.534 -911.534,911.534 -503.089,0 -911.534,-408.444 -911.534,-911.534 v -1134.59 c 0,-503.09 -408.444,-911.534 -911.534,-911.534 -503.089,0 -911.534,408.444 -911.534,911.534 v 177.724 c 0,503.089 -408.444,911.534 -911.534,911.534 -503.089,0 -911.533,-408.445 -911.533,-911.534 v -2859.19 z"
         style="fill:#6c483e"
         id="path9" />
      <clipPath
         id="clipPath10">
        <path
           d="m 5489.7,536.499 h 9115.34 v 2346.3 c 0,503.089 -408.445,911.533 -911.534,911.533 -503.09,0 -911.534,-408.444 -911.534,-911.533 v -322.847 c 0,-503.09 -408.445,-911.534 -911.534,-911.534 -503.089,0 -911.534,408.444 -911.534,911.534 v 1792.6 c 0,503.09 -408.445,911.534 -911.534,911.534 -503.089,0 -911.534,-408.444 -911.534,-911.534 v -1134.59 c 0,-503.09 -408.444,-911.534 -911.534,-911.534 -503.089,0 -911.534,408.444 -911.534,911.534 v 177.724 c 0,503.089 -408.444,911.534 -911.534,911.534 -503.089,0 -911.533,-408.445 -911.533,-911.534 V 536.496 Z"
           id="path10" />
      </clipPath>
      <g
         clip-path="url(#_clip2)"
         id="g9"
         transform="translate(0,-3275.3614)">
        <path
           d="m 5489.7,1540.36 c 332.088,1039.41 910.961,1439.3 1835.72,1525.53 559.36,52.157 1005.48,-402.522 1660,-349.417 766.204,62.167 625.199,1446.15 1973.48,1438.96 574.43,-3.061 1033.22,-2108.51 1664.91,-2108.51 631.695,0 967.576,835.868 1981.23,835.868 -159.085,965.212 -898.818,1911.69 -1622.29,2858.7 0,0 -4450.58,577.657 -4883.83,275.7 C 7665.677,5715.234 4212.86,4927.521 4212.86,4927.521 L 5489.7,1540.351 Z"
           style="fill:#503529"
           id="path11" />
      </g>
      <path
         d="m 5496.8486,-2866.7802 h 9101.0424 v 2473.2711 c 0,530.3139 -407.804,960.86103 -910.104,960.86103 -502.301,0 -910.104,-430.54713 -910.104,-960.86103 v -340.31801 c 0,-530.31499 -407.805,-960.86209 -910.104,-960.86209 -502.3,0 -910.105,430.5471 -910.105,960.86209 V 1155.7803 c 0,530.3149 -407.804,960.862 -910.104,960.862 -502.2999,0 -910.1043,-430.5471 -910.1043,-960.862 V -40.208598 c 0,-530.314942 -407.8033,-960.862102 -910.1042,-960.862102 -502.3,0 -910.1043,430.54716 -910.1043,960.862102 V 147.13302 c 0,530.31389 -407.8034,960.86208 -910.1043,960.86208 -502.2999,0 -910.1033,-430.54819 -910.1033,-960.86208 V -2866.7834 Z"
         style="fill:none;stroke:#2a1c18;stroke-width:566.407px"
         id="path12" />
    </g>
    <path
       style="clip-rule:evenodd;fill:none;fill-rule:evenodd;stroke:#2a1c18;stroke-width:187.844;stroke-linecap:round;stroke-linejoin:round;stroke-miterlimit:1.5;stroke-dasharray:none;stroke-opacity:1"
       d="m -789.03661,-1362.2317 c -105.7299,-96.2426 -103.18467,-147.746 -105.1765,-217.1695 -2.32781,-81.1334 108.07271,-189.4317 108.12856,-251.6473 0.0566,-63.0126 -11.75578,-93.7602 -103.83459,-210.4662"
       id="path13"
       sodipodi:nodetypes="cssc" />
    <path
       style="clip-rule:evenodd;fill:none;fill-rule:evenodd;stroke:#2a1c18;stroke-width:187.844;stroke-linecap:round;stroke-linejoin:round;stroke-miterlimit:1.5;stroke-dasharray:none;stroke-opacity:1"
       d="m -269.19103,-1785.5807 c -105.72991,-96.2426 -103.18467,-147.746 -105.17651,-217.1695 -2.3278,-81.1334 108.07272,-189.4316 108.12857,-251.6473 0.0566,-63.0126 -11.75578,-93.7602 -103.83459,-210.4661"
       id="path11-3"
       sodipodi:nodetypes="cssc" />
    <path
       style="clip-rule:evenodd;fill:none;fill-rule:evenodd;stroke:#2a1c18;stroke-width:187.844;stroke-linecap:round;stroke-linejoin:round;stroke-miterlimit:1.5;stroke-dasharray:none;stroke-opacity:1"
       d="m 253.36544,-1562.1415 c -105.73015,-96.2426 -103.18486,-147.746 -105.17664,-217.1695 -2.3278,-81.1334 108.07276,-189.4317 108.12859,-251.6474 0.0566,-63.0125 -11.7557,-93.7602 -103.83467,-210.4661"
       id="path11-1"
       sodipodi:nodetypes="cssc" />
    <g
       id="g6"
       style="clip-rule:evenodd;fill-rule:evenodd;stroke-linejoin:round;stroke-miterlimit:2"
       transform="matrix(0.26458333,0,0,0.26458333,-3749.8041,3081.3741)">
      <path
         d="m 443.726,4132.94 c 387.728,47.488 1012,459.292 1554.24,585.644 428.583,99.87 825.789,57 809.247,-208.889 -23.825,-382.949 -1091.66,-517.202 -1701.1,-814.163 -668.168,-325.581 -1223.88,-1139.51 -1081.16,-2034.04 314.705,-1972.55 2909.52,-1942.5 4265.53,-1173.12 787.308,446.706 558.311,1424.75 78.795,1985.12 -112.357,131.302 -455.501,112.401 -613.569,35.298 -365.641,-178.353 -818.111,-473.365 -1384.96,-540.623 -277.794,-32.961 -430.543,9.101 -497.27,190.113 -55.449,150.417 171.513,356.846 253.124,389.439 587.902,234.792 662.098,229.282 1280.89,353.931 158.644,31.958 901.632,143.373 1146.4,533.006 255.705,407.042 341.876,1096.18 -21.993,1816.8 -235.63,466.654 -837.146,613.226 -1288.73,713.382 -1044.2,231.589 -2149.72,187.255 -3033.7,-476.122 -340.754,-255.718 -188.358,-819.873 -80.056,-1125 29.22,-82.324 215.646,-242.866 314.298,-230.784 z"
         style="fill:#2a1c18;fill-rule:nonzero"
         id="path1-6" />
      <path
         d="m 7466,2010.29 c 500.702,-66.337 1092.83,39.174 1488.74,374.539 328.334,278.122 282.548,765.294 -28.69,1031.7 -158.617,135.77 -419.789,10.305 -575.258,-23.58 -334.066,-72.811 -439.32,-126.045 -762.923,37.547 -369.993,187.044 -501.894,700.912 -327.343,1059.44 40.344,82.867 99.762,159.028 171.515,216.873 529.447,426.822 1018.85,-293.098 1381.64,-556.526 219.395,-159.309 594.241,-110.11 727.662,139.406 301.122,563.142 -547.238,1202.21 -932.912,1457.74 -136.258,90.28 -278.052,176.415 -431.253,233.391 -370.822,137.911 -786.746,128.219 -1170.02,73.849 -1122.3,-159.204 -1618.07,-1257.92 -1426.3,-2303.03 164.912,-898.733 991.702,-1622.99 1885.15,-1741.36 z"
         style="fill:#2a1c18;fill-rule:nonzero"
         id="path2-1" />
      <path
         d="m 11237.8,6307.18 c -281.391,-11.618 -390.161,-102.727 -535.119,-234.364 -334.964,-304.18 -353.082,-1940.84 -327.186,-2568.08 38.731,-938.12 134.837,-1899.27 315.514,-2157.26 124.698,-178.057 343.691,-377.414 766.414,-359.962 371.563,15.34 559.121,140.388 693.956,361.696 237.255,389.414 128.736,842.834 116.132,1479.71 -1.744,88.097 -22.057,173.772 26.192,319.487 15.563,47.001 79.201,160.644 222.856,166.574 143.654,5.931 296.394,-51.469 345.647,-263.878 115.244,-497.004 89.545,-1105.29 287.457,-1477.69 85.192,-160.3 208.48,-339.078 535.263,-325.587 538.68,22.239 757.344,263.899 827.696,836.628 124.591,1014.27 123.399,2806.82 -107.008,3647.16 -122.421,446.493 -527.815,569.26 -1118.57,543.055 -373.563,-16.571 -701.947,-376.986 -664.926,-926.311 41.499,-615.749 174.702,-924.198 -186.596,-978.407 -363.54,-54.546 -289.678,427.36 -351.39,833.959 -56.552,372.596 -97.577,694.943 -238.579,850.214 -119.32,131.396 -240.739,268.209 -607.751,253.057 z"
         style="fill:#2a1c18;fill-rule:nonzero"
         id="path3-5" />
      <path
         d="m 17693.6,5966 c -440.139,215.885 -921.625,209.087 -1372.46,23.067 -405.297,-167.232 -678.299,-409.282 -870.061,-953.413 -238.598,-677.034 -128.909,-1132.38 9.135,-1499.32 86.778,-230.664 205.526,-433.136 356.245,-607.416 150.719,-174.279 326.559,-312.678 527.518,-415.195 200.958,-102.518 415.619,-153.777 643.982,-153.777 326.422,0 848.808,90.271 1184.38,454.056 400.598,434.277 510.068,819.831 510.068,1345.13 0,273.38 -40.344,529.674 -121.032,768.881 -172.139,510.321 -422.268,819.471 -867.777,1037.99 z m -404.202,-1663.35 c 144.235,-155.65 225.266,-442.612 11.418,-689.43 -116.955,-134.987 -305.036,-157.935 -452.476,-68.106 -190.016,115.768 -257.731,232.959 -257.731,475.613 0,269.388 183.976,435.548 423.742,422.933 129.916,-6.836 195.881,-55.578 275.047,-141.01 z"
         style="fill:#2a1c18;fill-rule:nonzero"
         id="path4-1" />
      <path
         d="m 21134.4,1087.17 c 189.785,-63.227 567.046,-158.235 1097.62,-14.591 530.578,143.644 691.151,222.66 1003.71,674.826 119.35,172.659 179.024,375.714 179.024,609.168 0,92.408 -13.696,184.817 -41.087,277.226 -52.432,176.883 -145.002,332.321 -296.417,437.725 -145.107,101.012 -264.654,103.246 -419.68,18.238 -397.769,-218.113 -662.718,-391.641 -1021.32,-200.624 -281.097,149.733 -427.506,454.748 -472.507,590.929 -71.285,215.725 -123.347,404.582 -26.413,766.019 69.26,258.252 237.72,402.464 314.026,448.668 76.305,46.204 163.372,69.307 261.199,69.307 168.263,0 312.07,-40.125 431.419,-120.375 119.35,-80.249 228.916,-170.226 328.7,-269.93 99.784,-99.704 208.807,-179.386 299.352,-269.931 155.456,-155.455 507.344,-202.779 713.162,58.364 93.914,119.158 140.872,271.146 140.872,455.963 0,254.568 -135.589,549.18 -396.202,809.792 -225.824,225.824 -468.789,357.115 -707.292,466.906 -333.577,153.558 -676.966,233.454 -1033.06,233.454 -285.656,0 -557.617,-58.364 -815.881,-175.09 -258.265,-116.727 -484.246,-280.874 -677.944,-492.441 -193.699,-211.567 -347.288,-469.339 -460.767,-773.314 -264.741,-709.154 -196.46,-1286.68 -76.306,-1725.37 120.154,-438.687 318.936,-869.064 645.661,-1185.51 396.513,-384.031 727.998,-588.764 1030.12,-689.417 z"
         style="fill:#2a1c18;fill-rule:nonzero"
         id="path5-8" />
      <path
         d="m 26778.7,1296.88 c 1317.94,0 2387.93,1074.29 2387.93,2397.52 0,1323.23 -1070,2397.52 -2387.93,2397.52 -1317.94,0 -2387.93,-1074.29 -2387.93,-2397.52 0,-1323.23 1070,-2397.52 2387.93,-2397.52 z m 125.995,1649.68 c 423.936,66.85 711.662,456.219 642.123,868.961 -69.538,412.743 -470.177,693.563 -894.113,626.713 -423.937,-66.85 -711.663,-456.218 -642.124,-868.96 69.538,-412.743 470.177,-693.564 894.114,-626.714 z"
         style="fill:#2a1c18"
         id="path6-0" />
    </g>
  </g>
</svg>
