<?xml version="1.0" encoding="UTF-8" standalone="no"?>
<!DOCTYPE svg PUBLIC "-//W3C//DTD SVG 1.1//EN" "http://www.w3.org/Graphics/SVG/1.1/DTD/svg11.dtd">
<svg width="100%" height="100%" viewBox="0 0 29167 6309" version="1.1" xmlns="http://www.w3.org/2000/svg" xmlns:xlink="http://www.w3.org/1999/xlink" xml:space="preserve" xmlns:serif="http://www.serif.com/" style="fill-rule:evenodd;clip-rule:evenodd;stroke-linejoin:round;stroke-miterlimit:2;"><g><path d="M443.726,4132.94c387.728,47.488 1012,459.292 1554.24,585.644c428.583,99.87 825.789,57 809.247,-208.889c-23.825,-382.949 -1091.66,-517.202 -1701.1,-814.163c-668.168,-325.581 -1223.88,-1139.51 -1081.16,-2034.04c314.705,-1972.55 2909.52,-1942.5 4265.53,-1173.12c787.308,446.706 558.311,1424.75 78.795,1985.12c-112.357,131.302 -455.501,112.401 -613.569,35.298c-365.641,-178.353 -818.111,-473.365 -1384.96,-540.623c-277.794,-32.961 -430.543,9.101 -497.27,190.113c-55.449,150.417 171.513,356.846 253.124,389.439c587.902,234.792 662.098,229.282 1280.89,353.931c158.644,31.958 901.632,143.373 1146.4,533.006c255.705,407.042 341.876,1096.18 -21.993,1816.8c-235.63,466.654 -837.146,613.226 -1288.73,713.382c-1044.2,231.589 -2149.72,187.255 -3033.7,-476.122c-340.754,-255.718 -188.358,-819.873 -80.056,-1125c29.22,-82.324 215.646,-242.866 314.298,-230.784Z" style="fill:#2a1c18;fill-rule:nonzero;"/><path d="M7466,2010.29c500.702,-66.337 1092.83,39.174 1488.74,374.539c328.334,278.122 282.548,765.294 -28.69,1031.7c-158.617,135.77 -419.789,10.305 -575.258,-23.58c-334.066,-72.811 -439.32,-126.045 -762.923,37.547c-369.993,187.044 -501.894,700.912 -327.343,1059.44c40.344,82.867 99.762,159.028 171.515,216.873c529.447,426.822 1018.85,-293.098 1381.64,-556.526c219.395,-159.309 594.241,-110.11 727.662,139.406c301.122,563.142 -547.238,1202.21 -932.912,1457.74c-136.258,90.28 -278.052,176.415 -431.253,233.391c-370.822,137.911 -786.746,128.219 -1170.02,73.849c-1122.3,-159.204 -1618.07,-1257.92 -1426.3,-2303.03c164.912,-898.733 991.702,-1622.99 1885.15,-1741.36Z" style="fill:#2a1c18;fill-rule:nonzero;"/><path d="M11237.8,6307.18c-281.391,-11.618 -390.161,-102.727 -535.119,-234.364c-334.964,-304.18 -353.082,-1940.84 -327.186,-2568.08c38.731,-938.12 134.837,-1899.27 315.514,-2157.26c124.698,-178.057 343.691,-377.414 766.414,-359.962c371.563,15.34 559.121,140.388 693.956,361.696c237.255,389.414 128.736,842.834 116.132,1479.71c-1.744,88.097 -22.057,173.772 26.192,319.487c15.563,47.001 79.201,160.644 222.856,166.574c143.654,5.931 296.394,-51.469 345.647,-263.878c115.244,-497.004 89.545,-1105.29 287.457,-1477.69c85.192,-160.3 208.48,-339.078 535.263,-325.587c538.68,22.239 757.344,263.899 827.696,836.628c124.591,1014.27 123.399,2806.82 -107.008,3647.16c-122.421,446.493 -527.815,569.26 -1118.57,543.055c-373.563,-16.571 -701.947,-376.986 -664.926,-926.311c41.499,-615.749 174.702,-924.198 -186.596,-978.407c-363.54,-54.546 -289.678,427.36 -351.39,833.959c-56.552,372.596 -97.577,694.943 -238.579,850.214c-119.32,131.396 -240.739,268.209 -607.751,253.057Z" style="fill:#2a1c18;fill-rule:nonzero;"/><path d="M17693.6,5966c-440.139,215.885 -921.625,209.087 -1372.46,23.067c-405.297,-167.232 -678.299,-409.282 -870.061,-953.413c-238.598,-677.034 -128.909,-1132.38 9.135,-1499.32c86.778,-230.664 205.526,-433.136 356.245,-607.416c150.719,-174.279 326.559,-312.678 527.518,-415.195c200.958,-102.518 415.619,-153.777 643.982,-153.777c326.422,0 848.808,90.271 1184.38,454.056c400.598,434.277 510.068,819.831 510.068,1345.13c-0,273.38 -40.344,529.674 -121.032,768.881c-172.139,510.321 -422.268,819.471 -867.777,1037.99Zm-404.202,-1663.35c144.235,-155.65 225.266,-442.612 11.418,-689.43c-116.955,-134.987 -305.036,-157.935 -452.476,-68.106c-190.016,115.768 -257.731,232.959 -257.731,475.613c-0,269.388 183.976,435.548 423.742,422.933c129.916,-6.836 195.881,-55.578 275.047,-141.01Z" style="fill:#2a1c18;fill-rule:nonzero;"/><path d="M21134.4,1087.17c189.785,-63.227 567.046,-158.235 1097.62,-14.591c530.578,143.644 691.151,222.66 1003.71,674.826c119.35,172.659 179.024,375.714 179.024,609.168c0,92.408 -13.696,184.817 -41.087,277.226c-52.432,176.883 -145.002,332.321 -296.417,437.725c-145.107,101.012 -264.654,103.246 -419.68,18.238c-397.769,-218.113 -662.718,-391.641 -1021.32,-200.624c-281.097,149.733 -427.506,454.748 -472.507,590.929c-71.285,215.725 -123.347,404.582 -26.413,766.019c69.26,258.252 237.72,402.464 314.026,448.668c76.305,46.204 163.372,69.307 261.199,69.307c168.263,-0 312.07,-40.125 431.419,-120.375c119.35,-80.249 228.916,-170.226 328.7,-269.93c99.784,-99.704 208.807,-179.386 299.352,-269.931c155.456,-155.455 507.344,-202.779 713.162,58.364c93.914,119.158 140.872,271.146 140.872,455.963c-0,254.568 -135.589,549.18 -396.202,809.792c-225.824,225.824 -468.789,357.115 -707.292,466.906c-333.577,153.558 -676.966,233.454 -1033.06,233.454c-285.656,-0 -557.617,-58.364 -815.881,-175.09c-258.265,-116.727 -484.246,-280.874 -677.944,-492.441c-193.699,-211.567 -347.288,-469.339 -460.767,-773.314c-264.741,-709.154 -196.46,-1286.68 -76.306,-1725.37c120.154,-438.687 318.936,-869.064 645.661,-1185.51c396.513,-384.031 727.998,-588.764 1030.12,-689.417Z" style="fill:#2a1c18;fill-rule:nonzero;"/><path d="M26778.7,1296.88c1317.94,-0 2387.93,1074.29 2387.93,2397.52c-0,1323.23 -1070,2397.52 -2387.93,2397.52c-1317.94,-0 -2387.93,-1074.29 -2387.93,-2397.52c-0,-1323.23 1070,-2397.52 2387.93,-2397.52Zm125.995,1649.68c423.936,66.85 711.662,456.219 642.123,868.961c-69.538,412.743 -470.177,693.563 -894.113,626.713c-423.937,-66.85 -711.663,-456.218 -642.124,-868.96c69.538,-412.743 470.177,-693.564 894.114,-626.714Z" style="fill:#2a1c18;"/></g></svg>