<?xml version="1.0" encoding="UTF-8" standalone="no"?>
<!-- Created with Inkscape (http://www.inkscape.org/) -->

<svg
   width="3861.6982mm"
   height="1668.9507mm"
   viewBox="0 0 3861.6982 1668.9507"
   version="1.1"
   id="svg1"
   xmlns:inkscape="http://www.inkscape.org/namespaces/inkscape"
   xmlns:sodipodi="http://sodipodi.sourceforge.net/DTD/sodipodi-0.dtd"
   xmlns="http://www.w3.org/2000/svg"
   xmlns:svg="http://www.w3.org/2000/svg">
  <sodipodi:namedview
     id="namedview1"
     pagecolor="#ffffff"
     bordercolor="#000000"
     borderopacity="0.25"
     inkscape:showpageshadow="2"
     inkscape:pageopacity="0.0"
     inkscape:pagecheckerboard="0"
     inkscape:deskcolor="#d1d1d1"
     inkscape:document-units="mm" />
  <defs
     id="defs1" />
  <g
     inkscape:label="Ebene 1"
     inkscape:groupmode="layer"
     id="layer1"
     transform="translate(1766.3583,657.225)">
    <path
       d="m -1648.9522,436.15254 c 102.5864,12.56453 267.7583,121.521 411.226,154.95164 113.3959,26.42393 218.49,15.08125 214.1133,-55.26855 -6.3037,-101.32192 -288.8351,-136.84303 -450.0827,-215.41396 -176.7862,-86.1433 -323.8183,-301.495348 -286.057,-538.17307 83.2657,-521.90385 769.81054,-513.95312 1128.58818,-310.388 208.30857,118.19096 147.71978,376.9651 20.84784,525.2296601 C -640.04437,31.83058 -730.83455,26.829691 -772.65671,6.4295225 -869.39922,-40.759708 -989.11524,-118.81497 -1139.094,-136.61031 c -73.4997,-8.72093 -113.9145,2.40797 -131.5694,50.300729 -14.6709,39.797831 45.3795,94.4155034 66.9724,103.039068 155.5491,62.122049 175.1801,60.664195 338.90214,93.644243 41.97456,8.45555 238.5568,37.93411 303.31833,141.0245 67.65528,107.69653 90.45469,290.03096 -5.81898,480.695 -62.34377,123.46887 -221.49487,162.24937 -340.97647,188.74898 -276.27792,61.27459 -568.78012,49.54455 -802.66642,-125.97394 -90.1579,-67.65872 -49.8364,-216.92473 -21.1815,-297.65625 7.7311,-21.78156 57.0563,-64.25829 83.158,-61.0616 z"
       style="clip-rule:evenodd;fill:#2a1c18;fill-rule:nonzero;stroke-width:0.264583;stroke-linejoin:round;stroke-miterlimit:2"
       id="path1" />
    <path
       d="m 209.02444,-125.46527 c 132.4774,-17.55166 289.1446,10.36479 393.89579,99.096778 86.8717,73.586445 74.75749,202.484032 -7.5909,272.970622 -41.96741,35.92248 -111.06917,2.72653 -152.20367,-6.23888 -88.3883,-19.26457 -116.23675,-33.3494 -201.85671,9.93432 -97.89398,49.48872 -132.79279,185.44963 -86.6095,280.31016 10.67435,21.92523 26.39536,42.07616 45.38001,57.38098 140.08285,112.92998 269.57072,-77.54885 365.55891,-147.2475 58.04826,-42.15051 157.22626,-29.13327 192.52723,36.8845 C 837.79747,626.6237 613.33555,795.71044 511.29264,863.31941 475.24104,887.206 437.72472,909.99588 397.19029,925.07078 299.07697,961.55973 189.03041,958.99539 87.622497,944.61 -209.31937,902.48727 -340.49185,611.78533 -289.75271,335.26665 -246.11974,97.47688 -27.364889,-94.149449 209.02656,-125.46818 Z"
       style="clip-rule:evenodd;fill:#2a1c18;fill-rule:nonzero;stroke-width:0.264583;stroke-linejoin:round;stroke-miterlimit:2"
       id="path2" />
    <path
       d="m 1206.9798,1011.4202 c -74.4513,-3.0739 -103.2301,-27.17985 -141.5835,-62.00881 -88.62591,-80.48096 -93.41963,-513.51391 -86.56798,-679.47116 10.24757,-248.210912 35.67558,-502.51518 83.47978,-570.77503 32.993,-47.11092 90.9349,-99.85746 202.7803,-95.23995 98.3094,4.05871 147.9341,37.14433 183.6092,95.69873 62.7737,103.03246 34.0614,222.999831 30.7266,391.506604 -0.4614,23.308996 -5.8359,45.977176 6.93,84.530936 4.1177,12.43568 20.9552,42.50372 58.964,44.0727 38.0084,1.56925 78.4209,-13.61784 91.4524,-69.81772 30.4916,-131.498971 23.6921,-292.44131 76.0563,-390.97214 22.5404,-42.41271 55.1604,-89.71439 141.6217,-86.14489 142.5257,5.88407 200.3806,69.82327 218.9946,221.35782 32.9647,268.35893 32.6493,742.63778 -28.3126,964.97774 -32.3905,118.1346 -139.651,150.61667 -295.955,143.68327 -98.8385,-4.38438 -185.7234,-99.74418 -175.9283,-245.08642 10.98,-162.91692 46.2232,-244.52738 -49.3702,-258.87018 -96.1866,-14.43196 -76.6439,113.07233 -92.9719,220.65165 -14.9627,98.58269 -25.8173,183.87033 -63.124,224.95245 -31.5701,34.76519 -63.6956,70.9636 -160.8008,66.9547 z"
       style="clip-rule:evenodd;fill:#2a1c18;fill-rule:nonzero;stroke-width:0.264583;stroke-linejoin:round;stroke-miterlimit:2"
       id="path3" />
  </g>
</svg>
