<?xml version="1.0" encoding="UTF-8" standalone="no"?>
<!-- Created with Inkscape (http://www.inkscape.org/) -->

<svg
   width="2596.6792mm"
   height="1357.5621mm"
   viewBox="0 0 2596.6792 1357.5622"
   version="1.1"
   id="svg1"
   xmlns:inkscape="http://www.inkscape.org/namespaces/inkscape"
   xmlns:sodipodi="http://sodipodi.sourceforge.net/DTD/sodipodi-0.dtd"
   xmlns="http://www.w3.org/2000/svg"
   xmlns:svg="http://www.w3.org/2000/svg">
  <sodipodi:namedview
     id="namedview1"
     pagecolor="#ffffff"
     bordercolor="#000000"
     borderopacity="0.25"
     inkscape:showpageshadow="2"
     inkscape:pageopacity="0.0"
     inkscape:pagecheckerboard="0"
     inkscape:deskcolor="#d1d1d1"
     inkscape:document-units="mm" />
  <defs
     id="defs1" />
  <g
     inkscape:label="Ebene 1"
     inkscape:groupmode="layer"
     id="layer1"
     transform="translate(1163.6376,488.15625)">
    <path
       d="m -692.15267,-464.39404 c 50.21395,-16.72881 150.03092,-41.86634 290.41195,-3.86054 140.3821,38.00581 182.86704,58.91213 265.56494,178.54771 31.57802,45.6827 47.366764,99.40767 47.366764,161.1757 0,24.44962 -3.623733,48.899499 -10.870935,73.34938 -13.872629,46.8002931 -38.365109,87.926597 -78.426999,115.814738 -38.39289,26.726091 -70.02303,27.317171 -111.04033,4.825471 C -394.39033,7.749355 -464.49141,-38.163261 -559.37153,12.376653 -633.74511,51.993509 -672.48249,132.69539 -684.389,168.72662 c -18.86082,57.07723 -32.63556,107.04565 -6.98844,202.67585 18.32504,68.32918 62.89675,106.48527 83.08604,118.71008 20.18903,12.22481 43.22551,18.33747 69.1089,18.33747 44.51959,0 82.56852,-10.6164 114.14628,-31.84921 31.57802,-21.23255 60.56736,-45.03897 86.96854,-71.41898 26.40118,-26.38002 55.24685,-47.46255 79.20355,-71.41925 41.13107,-41.1308 134.23476,-53.65194 188.690777,15.44215 24.848079,31.52722 37.272383,71.74071 37.272383,120.6402 0,67.35445 -35.87459,145.30388 -104.82844,214.25747 -59.74927,59.74926 -124.03376,94.48667 -187.13768,123.53554 -88.25891,40.62889 -179.11392,61.76804 -273.33045,61.76804 -75.57982,0 -147.53617,-15.44214 -215.86851,-46.3259 -68.33262,-30.88401 -128.12342,-74.31457 -179.37269,-130.29168 -51.24956,-55.9771 -91.88666,-124.17927 -121.91126,-204.60599 -70.0461,-187.63033 -51.98,-340.43408 -20.1893,-456.504139 31.7907,-116.069267 84.3852,-229.939851 170.83114,-313.666181 104.91073,-101.6082 192.61613,-155.77714 272.55258,-182.40825 z"
       style="clip-rule:evenodd;fill:#2a1c18;fill-rule:nonzero;stroke-width:0.264583;stroke-linejoin:round;stroke-miterlimit:2"
       id="path5" />
    <path
       d="m 801.23502,-408.90827 c 348.70498,0 631.80648,284.23922 631.80648,634.34382 0,350.1046 -283.1042,634.34383 -631.80648,634.34383 -348.70495,0 -631.80647,-284.23923 -631.80647,-634.34383 0,-350.1046 283.10416,-634.34382 631.80647,-634.34382 z M 834.5712,27.569557 C 946.73759,45.256952 1022.8651,148.2775 1004.4662,257.48215 986.06764,366.68707 880.06524,440.98736 767.89884,423.29996 655.73218,405.61257 579.60468,302.59229 598.00354,193.38763 616.40213,84.182717 722.40453,9.8821612 834.5712,27.569557 Z"
       style="clip-rule:evenodd;fill:#2a1c18;fill-rule:evenodd;stroke-width:0.264583;stroke-linejoin:round;stroke-miterlimit:2"
       id="path6" />
  </g>
</svg>
