<?xml version="1.0" encoding="UTF-8" standalone="no"?>
<svg
   width="20834"
   height="20834"
   viewBox="0 0 20834 20834"
   version="1.1"
   xml:space="preserve"
   style="clip-rule:evenodd;fill-rule:evenodd;stroke-linecap:round;stroke-linejoin:round;stroke-miterlimit:1.5"
   id="svg10"
   sodipodi:docname="schoco-icon_1_1.svg"
   inkscape:version="1.3 (0e150ed6c4, 2023-07-21)"
   xmlns:inkscape="http://www.inkscape.org/namespaces/inkscape"
   xmlns:sodipodi="http://sodipodi.sourceforge.net/DTD/sodipodi-0.dtd"
   xmlns="http://www.w3.org/2000/svg"
   xmlns:svg="http://www.w3.org/2000/svg"><defs
     id="defs10"><inkscape:path-effect
       effect="bspline"
       id="path-effect13"
       is_visible="true"
       lpeversion="1.3"
       weight="33.333333"
       steps="2"
       helper_size="0"
       apply_no_weight="true"
       apply_with_weight="true"
       only_selected="false"
       uniform="false" /><inkscape:path-effect
       effect="spiro"
       id="path-effect12"
       is_visible="true"
       lpeversion="1" /></defs><sodipodi:namedview
     id="namedview10"
     pagecolor="#ffffff"
     bordercolor="#000000"
     borderopacity="0.25"
     inkscape:showpageshadow="2"
     inkscape:pageopacity="0.0"
     inkscape:pagecheckerboard="0"
     inkscape:deskcolor="#d1d1d1"
     inkscape:zoom="0.029615052"
     inkscape:cx="5706.5576"
     inkscape:cy="5993.5738"
     inkscape:window-width="1920"
     inkscape:window-height="1017"
     inkscape:window-x="1912"
     inkscape:window-y="317"
     inkscape:window-maximized="1"
     inkscape:current-layer="svg10" /><g
     id="g10"
     transform="translate(-143.2596,8691.0827)"><path
       d="m 12467.2,9381.23 c 672.847,438.029 1076.3,996.453 1076.3,1604.34 0,195.404 -42.622,377.344 -126.361,579.677 -83.74,202.332 -228.561,223.256 -585.854,223.256 h -4100.88 c 0,0 -4100.88,0 -4100.88,0 -357.294,0 -502.115,-20.924 -585.854,-223.256 -83.739,-202.333 -126.362,-384.273 -126.362,-579.677 0,-607.931 403.514,-1166.39 1076.45,-1604.43"
       style="fill:#503529;stroke:#2a1c18;stroke-width:644.12px"
       id="path1" /><path
       d="M 8440.72,9991.5184 C 4275.47,9966.1558 906.96,6706.5985 906.96,2689.3927 v -3942.0472 c 9.74,-1308.8907 419.762,-1739.565 1295.82,-1790.1164 h 12574 c 876.057,50.5459 1286.08,481.2202 1295.82,1790.1164 v 3942.0472 c 0,4032.9351 -3394.94,7302.2773 -7582.8,7302.2773 l -49.04,-0.1503 z"
       style="fill:#89614f;stroke-width:1.17412"
       id="path2" /><clipPath
       id="_clip1"><path
         d="M 8440.72,9991.56 C 4275.47,9973.162 906.96,7608.68 906.96,4694.6 V 1835.04 C 916.7,885.571 1326.722,573.16 2202.78,536.49 h 12574 c 876.057,36.666 1286.08,349.077 1295.82,1298.55 V 4694.6 c 0,2925.49 -3394.94,5297.07 -7582.8,5297.07 l -49.04,-0.109 z"
         id="path3" /></clipPath><g
       clip-path="url(#_clip1)"
       id="g4"
       transform="matrix(1,0,0,1.3885392,0,-3821.4792)"><path
         d="m 13876.8,8420.14 c -2891.03,0 -4698.71,295.254 -6961.74,-485.859 C 3626.12,6799.061 2313.68,3844.271 3392.8,536.501 H -874 v 8844.64 c 6282.55,866.589 14552.4,465.005 14750.8,-960.995 z"
         style="fill:#6c483e"
         id="path4" /></g><path
       d="M 8441.16,9923.5087 C 4313.2685,9898.3451 974.97089,6664.359 974.97089,2678.6682 v -3911.1219 c 9.65264,-1298.6225 415.99711,-1725.9181 1284.19771,-1776.073 H 14720.391 c 868.2,50.1494 1274.545,477.4451 1284.198,1776.073 v 3911.1219 c 0,4001.2966 -3364.49,7244.9909 -7514.7892,7244.9909 l -48.6001,-0.1491 z"
       style="fill:none;stroke:#2a1c18;stroke-width:964.182px"
       id="path5" /><path
       d="m 16177.473,1290.9239 h 1269.054 c 524.7,0 879.018,94.138 648.195,842.8355 -328.181,1064.4878 -1201.055,3526.9084 -2029.197,3526.9084 h -622.399 c 5.459,0 -247.789,274.0122 -844.153,1204.9173 -578.095,788.0997 -835.344,1005.8396 -835.344,1005.8396 l 2057.014,-135.0665 c 1067.543,-70.0964 2116.429,-927.9058 2605.523,-1657.1923 561.168,-836.7495 1389.737,-2580.7675 1564.67,-4134.6061 C 20152.1,512.12074 19158.531,-739.21709 18217.676,-739.21709 H 16177.462 V 1290.9043 Z"
       style="fill:#503529;stroke:#2a1c18;stroke-width:687.637px"
       id="path6"
       sodipodi:nodetypes="cssscccssssccc" /><path
       d="m 5489.7,-2941.4621 h 9115.34 v 2346.3 c 0,503.089 -408.445,911.533 -911.534,911.533 -503.09,0 -911.534,-408.444 -911.534,-911.533 v -322.847 c 0,-503.09 -408.445,-911.534 -911.534,-911.534 -503.089,0 -911.534,408.444 -911.534,911.534 v 1792.6 c 0,503.09 -408.445,911.534 -911.534,911.534 -503.089,0 -911.534,-408.444 -911.534,-911.534 v -1134.59 c 0,-503.09 -408.444,-911.534 -911.534,-911.534 -503.089,0 -911.534,408.444 -911.534,911.534 v 177.724 c 0,503.089 -408.444,911.534 -911.534,911.534 -503.089,0 -911.533,-408.445 -911.533,-911.534 v -2859.19 z"
       style="fill:#6c483e"
       id="path7" /><clipPath
       id="_clip2"><path
         d="m 5489.7,536.499 h 9115.34 v 2346.3 c 0,503.089 -408.445,911.533 -911.534,911.533 -503.09,0 -911.534,-408.444 -911.534,-911.533 v -322.847 c 0,-503.09 -408.445,-911.534 -911.534,-911.534 -503.089,0 -911.534,408.444 -911.534,911.534 v 1792.6 c 0,503.09 -408.445,911.534 -911.534,911.534 -503.089,0 -911.534,-408.444 -911.534,-911.534 v -1134.59 c 0,-503.09 -408.444,-911.534 -911.534,-911.534 -503.089,0 -911.534,408.444 -911.534,911.534 v 177.724 c 0,503.089 -408.444,911.534 -911.534,911.534 -503.089,0 -911.533,-408.445 -911.533,-911.534 V 536.496 Z"
         id="path8" /></clipPath><g
       clip-path="url(#_clip2)"
       id="g9"
       transform="translate(0,-3275.3614)"><path
         d="m 5489.7,1540.36 c 332.088,1039.41 910.961,1439.3 1835.72,1525.53 559.36,52.157 1005.48,-402.522 1660,-349.417 766.204,62.167 625.199,1446.15 1973.48,1438.96 574.43,-3.061 1033.22,-2108.51 1664.91,-2108.51 631.695,0 967.576,835.868 1981.23,835.868 -159.085,965.212 -898.818,1911.69 -1622.29,2858.7 0,0 -4450.58,577.657 -4883.83,275.7 C 7665.677,5715.234 4212.86,4927.521 4212.86,4927.521 L 5489.7,1540.351 Z"
         style="fill:#503529"
         id="path9" /></g><path
       d="m 5496.8486,-2866.7802 h 9101.0424 v 2473.2711 c 0,530.3139 -407.804,960.86103 -910.104,960.86103 -502.301,0 -910.104,-430.54713 -910.104,-960.86103 v -340.31801 c 0,-530.31499 -407.805,-960.86209 -910.104,-960.86209 -502.3,0 -910.105,430.5471 -910.105,960.86209 V 1155.7803 c 0,530.3149 -407.804,960.862 -910.104,960.862 -502.2999,0 -910.1043,-430.5471 -910.1043,-960.862 V -40.208598 c 0,-530.314942 -407.8033,-960.862102 -910.1042,-960.862102 -502.3,0 -910.1043,430.54716 -910.1043,960.862102 V 147.13302 c 0,530.31389 -407.8034,960.86208 -910.1043,960.86208 -502.2999,0 -910.1033,-430.54819 -910.1033,-960.86208 V -2866.7834 Z"
       style="fill:none;stroke:#2a1c18;stroke-width:566.407px"
       id="path10" /></g><path
     style="fill:none;stroke:#2a1c18;stroke-width:709.96;stroke-dasharray:none;stroke-opacity:1"
     d="m 6636.4347,4724.0788 c -399.6091,-363.7516 -389.9893,-558.4101 -397.5175,-820.7982 -8.798,-306.6459 408.4638,-715.9622 408.6749,-951.108 0.2138,-238.1577 -44.4313,-354.3692 -392.4457,-795.4626"
     id="path11"
     sodipodi:nodetypes="cssc" /><path
     style="fill:none;fill-opacity:1;stroke:#2a1c18;stroke-width:1;stroke-dasharray:none;stroke-opacity:1;paint-order:normal"
     d="m 8858.2189,16116.706 c -248.3607,6.747 -497.1987,-107.845 -653.5244,-300.953 -156.3257,-193.108 -216.5929,-460.353 -158.28,-701.865 52.7565,-218.5 192.6464,-404.296 332.9671,-579.897 140.3206,-175.6 287.4746,-353.238 359.4543,-566.18 53.6975,-158.857 62.3233,-332.677 24.6173,-496.069 -37.7059,-163.393 -121.628,-315.856 -239.5067,-435.118"
     id="path12"
     inkscape:path-effect="#path-effect12"
     inkscape:original-d="m 8858.2189,16116.706 c -262.6426,-326.314 -541.203,-668.545 -811.8044,-1002.818 -270.6015,-334.272 461.6142,-764.051 692.4214,-1146.077 230.8071,-382.025 -143.2596,-620.791 -214.8894,-931.187" /><path
     style="fill:none;fill-opacity:1;stroke:#4eb643;stroke-opacity:1;paint-order:normal"
     d="m 12177.066,15161.641 c 660.586,-517.326 1321.172,-1034.652 1353.001,-1392.804 31.83,-358.151 -565.073,-557.118 -1161.988,-756.09"
     id="path13"
     inkscape:path-effect="#path-effect13"
     inkscape:original-d="m 12177.066,15161.641 c 660.586,-517.326 1321.172,-1034.652 1981.758,-1551.979 -596.927,-198.975 -1193.83,-397.943 -1790.745,-596.915" /><path
     style="clip-rule:evenodd;fill:none;fill-rule:evenodd;stroke:#2a1c18;stroke-width:709.96;stroke-linecap:round;stroke-linejoin:round;stroke-miterlimit:1.5;stroke-dasharray:none;stroke-opacity:1"
     d="m 8601.2054,3124.0197 c -399.6091,-363.7516 -389.9893,-558.4101 -397.5175,-820.7982 -8.798,-306.6459 408.4638,-715.9622 408.6749,-951.108 0.2138,-238.1577 -44.4313,-354.36915 -392.4457,-795.46255"
     id="path11-3"
     sodipodi:nodetypes="cssc" /><path
     style="clip-rule:evenodd;fill:none;fill-rule:evenodd;stroke:#2a1c18;stroke-width:709.96;stroke-linecap:round;stroke-linejoin:round;stroke-miterlimit:1.5;stroke-dasharray:none;stroke-opacity:1"
     d="m 10576.222,3968.5141 c -399.61,-363.7516 -389.99,-558.4101 -397.518,-820.7982 -8.798,-306.6459 408.464,-715.9622 408.675,-951.108 0.214,-238.1577 -44.431,-354.3692 -392.446,-795.4626"
     id="path11-1"
     sodipodi:nodetypes="cssc" /></svg>
